PathFileType	4	(X/Y/Z)	OpenSim_Sub10_EMGBaseline_Magnet.trc
DataRate	CameraRate	NumFrames	NumMarkers	Units	OrigDataRate	OrigDataStartFrame	OrigNumFrames
100	100	13	8	m	100	7176	8201
Frame#	Time	torso_imu_offset_imu	pelvis_imu_offset_imu	tibia_r_imu_offset_imu	femur_r_imu_offset_imu	tibia_l_imu_offset_imu	femur_l_imu_offset_imu	toes_r_imu_offset_imu	toes_l_imu_offset_imu
				X1	Y1	Z1	X2	Y2	Z2	X3	Y3	Z3	X4	Y4	Z4	X5	Y5	Z5	X6	Y6	Z6	X7	Y7	Z7	X8		Y8	Z8	

7176	71.75000000	-0.92529300	-0.10351600	0.13696300	-0.68066400	0.18286100	-0.62109400	-0.76538100	-0.43652300	-0.17529300	-0.84765600	-0.14648400	0.02319300	-0.49536100	0.57226600	0.32568400	-0.62304700	0.31274400	0.46289100	-0.63305700	-0.24902300	-0.40405300	-0.77880900	-0.20800800	-0.28247100
7177	71.76000000	-0.92309600	-0.10351600	0.13256800	-0.67627000	0.18286100	-0.62353500	-0.75610400	-0.46167000	-0.16552700	-0.84326200	-0.15698200	0.02587900	-0.48486300	0.59008800	0.32226600	-0.62524400	0.31469700	0.45849600	-0.63476600	-0.26342800	-0.39550800	-0.77905300	-0.20166000	-0.25561500
7178	71.77000000	-0.92944300	-0.10351600	0.13916000	-0.68090800	0.18920900	-0.61669900	-0.74755900	-0.46997100	-0.16528300	-0.84326200	-0.15478500	0.03247100	-0.47363300	0.59448200	0.32202100	-0.63183600	0.31689500	0.45166000	-0.62841800	-0.27148400	-0.39306600	-0.79003900	-0.20629900	-0.23535200
7179	71.78000000	-0.92553700	-0.09716800	0.13671900	-0.67871100	0.18701200	-0.61669900	-0.74658200	-0.49292000	-0.15112300	-0.83886700	-0.16113300	0.03271500	-0.45849600	0.60986300	0.32324200	-0.63403300	0.31030300	0.44287100	-0.62841800	-0.26953100	-0.38916000	-0.79223600	-0.20654300	-0.19702100
7180	71.79000000	-0.93212900	-0.09082000	0.13647500	-0.68115200	0.19531200	-0.61694300	-0.73168900	-0.50341800	-0.13061500	-0.84521500	-0.16528300	0.04199200	-0.44555700	0.62963900	0.32446300	-0.64062500	0.31030300	0.43164100	-0.62841800	-0.27148400	-0.38891600	-0.80127000	-0.20898400	-0.16113300
7181	71.80000000	-0.92968800	-0.09936500	0.13012700	-0.68090800	0.19335900	-0.61694300	-0.72924800	-0.51171900	-0.11694300	-0.83911100	-0.15893600	0.04199200	-0.42797900	0.63623000	0.32153300	-0.64233400	0.30151400	0.44067400	-0.62402300	-0.27563500	-0.38891600	-0.80517600	-0.22021500	-0.12744100
7182	71.81000000	-0.92993200	-0.09521500	0.13232400	-0.68505900	0.18896500	-0.61206100	-0.72460900	-0.52856400	-0.10278300	-0.83886700	-0.16723600	0.04223600	-0.40844700	0.65380900	0.31811500	-0.65332000	0.29492200	0.41821300	-0.62793000	-0.28369100	-0.39086900	-0.81420900	-0.21606400	-0.07812500
7183	71.82000000	-0.93188500	-0.09521500	0.13012700	-0.68725600	0.18481400	-0.61669900	-0.71801800	-0.53686500	-0.09814500	-0.84277300	-0.17138700	0.04223600	-0.39086900	0.66503900	0.30395500	-0.66650400	0.29248000	0.41601600	-0.62158200	-0.28979500	-0.39282200	-0.81201200	-0.22070300	-0.03515600
7184	71.83000000	-0.93188500	-0.09936500	0.12573200	-0.68481400	0.18066400	-0.61865200	-0.71167000	-0.54101600	-0.09570300	-0.83203100	-0.18164100	0.04516600	-0.37109400	0.67602500	0.30761700	-0.67700200	0.28369100	0.40942400	-0.61938500	-0.29589800	-0.39062500	-0.80273400	-0.22534200	0.01196300
7185	71.84000000	-0.92089800	-0.10571300	0.12402300	-0.68701200	0.18066400	-0.61865200	-0.71167000	-0.54101600	-0.09130900	-0.83154300	-0.19848600	0.05932600	-0.35571300	0.68920900	0.29785200	-0.68335000	0.27050800	0.39624000	-0.61938500	-0.29394500	-0.38867200	-0.80053700	-0.22338900	0.06372100
7186	71.85000000	-0.92749000	-0.10351600	0.13037100	-0.68261700	0.18066400	-0.62109400	-0.71362300	-0.54516600	-0.09106400	-0.82910200	-0.21069300	0.05761700	-0.33374000	0.70459000	0.29687500	-0.69409200	0.26611300	0.38720700	-0.61718800	-0.30200200	-0.39257800	-0.79614300	-0.22387700	0.11547900
7187	71.86000000	-0.92724600	-0.10571300	0.13061500	-0.68237300	0.17236300	-0.62768600	-0.70922900	-0.54931600	-0.08862300	-0.82446300	-0.22729500	0.05835000	-0.30737300	0.71362300	0.28491200	-0.69604500	0.25317400	0.37841800	-0.61694300	-0.30615200	-0.38842800	-0.78271500	-0.22168000	0.15820300
7188	71.87000000	-0.92504900	-0.10766600	0.11962900	-0.68017600	0.17236300	-0.62304700	-0.70507800	-0.55151400	-0.09082000	-0.82202100	-0.23974600	0.06103500	-0.28515600	0.72021500	0.29101600	-0.71093800	0.24194300	0.38305700	-0.61694300	-0.31005900	-0.39038100	-0.77417000	-0.21313500	0.19848600
